<svg width="1199" height="38" viewBox="0 0 1199 38" fill="none" xmlns="http://www.w3.org/2000/svg">
<path d="M335.59 13.5148L328.199 18.2541C319.058 24.1152 307.24 23.6857 298.549 17.1765L296.653 15.7561C288.212 9.43413 276.552 9.66583 268.37 16.3181V16.3181C259.981 23.1373 247.891 23.1238 239.442 16.3798V16.3798C231.11 9.72894 219.24 9.53023 210.76 15.9915L209.292 17.1103C200.953 23.4644 189.31 23.1387 181.339 16.3284V16.3284C173.552 9.6753 162.231 9.19376 153.907 15.1616L150.002 17.9611C141.845 23.8092 130.704 23.1331 123.315 16.3415V16.3415C116.082 9.69439 105.229 8.88912 97.0949 14.396L90.9329 18.5676C82.8395 24.0467 71.9994 23.0279 65.0687 16.1367V16.1367C58.4721 9.57766 48.278 8.30166 40.2683 13.0324L9 31.5L40.5895 13.5148C48.5104 8.4356 58.4766 9.58219 65.2897 16.3565C72.2413 23.2684 82.4547 24.3072 90.4231 18.9128L97.2925 14.2622C105.478 8.72061 115.932 9.5567 123.317 16.3436C130.866 23.2818 141.599 23.9857 149.833 18.0827L154.023 15.0783C162.449 9.03694 173.392 9.53812 181.34 16.3295C189.483 23.2866 200.74 23.6266 209.212 17.1715L210.792 15.9674C219.428 9.38734 230.945 9.59708 239.449 16.3852C248.073 23.2686 259.8 23.2849 268.369 16.3185C276.721 9.52876 288.016 9.28714 296.597 15.7147L298.548 17.1754C307.389 23.7975 318.861 24.2416 328.097 18.3192L335.59 13.5148ZM335.59 13.5148C343.51 8.4356 353.477 9.58219 360.29 16.3565C367.241 23.2684 377.455 24.3072 385.423 18.9128L392.293 14.2622C400.478 8.72061 410.932 9.5567 418.317 16.3436C425.866 23.2818 436.599 23.9857 444.833 18.0827L449.023 15.0783C457.449 9.03694 468.392 9.53812 476.34 16.3295C484.483 23.2866 495.74 23.6266 504.212 17.1715L505.792 15.9674C514.428 9.38734 525.945 9.59708 534.449 16.3852C543.073 23.2686 554.8 23.2849 563.369 16.3185C571.721 9.52876 583.016 9.28714 591.597 15.7147V15.7147C601.462 23.103 614.876 23.5905 625.251 16.9379L630.59 13.5148C638.51 8.43559 648.477 9.58219 655.29 16.3565C662.241 23.2684 672.455 24.3072 680.423 18.9128L687.293 14.2622C695.478 8.72061 705.932 9.5567 713.317 16.3436C720.866 23.2818 731.599 23.9857 739.833 18.0827L744.023 15.0783C752.449 9.03693 763.392 9.53812 771.341 16.3295C779.483 23.2866 790.74 23.6266 799.212 17.1715L800.792 15.9674C809.428 9.38734 820.945 9.59708 829.449 16.3852C838.073 23.2686 849.8 23.2849 858.369 16.3185C866.721 9.52876 878.016 9.28714 886.597 15.7147L888.548 17.1754C897.389 23.7975 908.861 24.2416 918.097 18.3192L925.59 13.5148C933.51 8.43559 943.477 9.58219 950.29 16.3565C957.241 23.2684 967.455 24.3072 975.423 18.9128L982.293 14.2622C990.478 8.72061 1000.93 9.5567 1008.32 16.3436C1015.87 23.2818 1026.6 23.9857 1034.83 18.0827L1039.02 15.0783C1047.45 9.03693 1058.39 9.53812 1066.34 16.3295C1074.48 23.2866 1085.74 23.6266 1094.21 17.1715L1095.79 15.9674C1104.43 9.38734 1115.95 9.59708 1124.45 16.3852C1133.07 23.2686 1144.8 23.2849 1153.37 16.3185C1161.72 9.52876 1173.02 9.28714 1181.6 15.7147L1198 28" stroke="black" stroke-opacity="0.37" stroke-width="2" stroke-linecap="round"/>
<circle cx="10" cy="28" r="10" fill="#598BE0"/>
<circle cx="223" cy="10" r="10" fill="#598BE0"/>
<circle cx="547" cy="22" r="10" fill="#598BE0"/>
<circle cx="1022" cy="22" r="10" fill="#598BE0"/>
<circle cx="402" cy="10" r="10" fill="#598BE0"/>
<circle cx="755" cy="10" r="10" fill="#598BE0"/>
</svg>
